fd_5_states
version=1
nRows=39
nColumns=17
inDegrees=yes

# SIMM Motion File Header:
name fd_5_states
datacolumns 17
datarows 39
otherdata 1
range 0.398902 0.426890
endheader
time	/jointset/r_shoulder/r_shoulder_elev/value	/jointset/r_shoulder/r_shoulder_elev/speed	/jointset/r_elbow/r_elbow_flex/value	/jointset/r_elbow/r_elbow_flex/speed	/forceset/TRIlong/activation	/forceset/TRIlong/fiber_length	/forceset/TRIlat/activation	/forceset/TRIlat/fiber_length	/forceset/TRImed/activation	/forceset/TRImed/fiber_length	/forceset/BIClong/activation	/forceset/BIClong/fiber_length	/forceset/BICshort/activation	/forceset/BICshort/fiber_length	/forceset/BRA/activation	/forceset/BRA/fiber_length
      0.398902	    -26.889390	    218.118076	    170.316599	    404.797553	      0.020893	      0.166805	      0.224654	      0.116733	      0.221756	      0.111747	      0.984338	      0.058761	      0.503846	      0.058011	      0.021367	      0.040669
      0.399651	    -26.724774	    221.688966	    170.619186	    403.603929	      0.020884	      0.166825	      0.225354	      0.116667	      0.222463	      0.111680	      0.984920	      0.058731	      0.512115	      0.057940	      0.021353	      0.040622
      0.400846	    -26.456447	    227.418922	    171.100225	    401.471635	      0.020870	      0.166862	      0.227444	      0.116561	      0.224583	      0.111574	      0.985804	      0.058685	      0.517151	      0.057834	      0.021332	      0.040548
      0.402041	    -26.181255	    233.177558	    171.578549	    399.058427	      0.020857	      0.166903	      0.229450	      0.116455	      0.226619	      0.111468	      0.986636	      0.058642	      0.520379	      0.057739	      0.021311	      0.040477
      0.404572	    -25.575524	    245.427862	    172.581296	    393.014836	      0.020828	      0.167008	      0.232853	      0.116233	      0.230068	      0.111245	      0.988239	      0.058562	      0.526269	      0.057567	      0.021268	      0.040333
      0.406847	    -25.004721	    256.435043	    173.468078	    386.505202	      0.020804	      0.167128	      0.235144	      0.116036	      0.232386	      0.111048	      0.989513	      0.058500	      0.530634	      0.057438	      0.021230	      0.040213
      0.408344	    -24.615363	    263.660590	    174.043200	    381.661450	      0.020788	      0.167208	      0.236347	      0.115909	      0.233602	      0.110920	      0.990275	      0.058465	      0.533106	      0.057364	      0.021206	      0.040139
      0.409841	    -24.215216	    270.842066	    174.610743	    376.384935	      0.020772	      0.167310	      0.237354	      0.115784	      0.234619	      0.110795	      0.990981	      0.058434	      0.535303	      0.057298	      0.021182	      0.040068
      0.409961	    -24.182757	    271.415321	    174.655777	    375.943884	      0.020771	      0.167317	      0.237428	      0.115774	      0.234693	      0.110785	      0.991036	      0.058432	      0.535468	      0.057293	      0.021180	      0.040063
      0.410006	    -24.170496	    271.631403	    174.672749	    375.776843	      0.020771	      0.167320	      0.237460	      0.115770	      0.234725	      0.110781	      0.991056	      0.058431	      0.535637	      0.057291	      0.021179	      0.040060
      0.410032	    -24.163515	    271.754327	    174.682403	    375.681623	      0.020770	      0.167321	      0.237509	      0.115768	      0.234775	      0.110779	      0.991067	      0.058431	      0.536466	      0.057290	      0.021179	      0.040059
      0.410058	    -24.156531	    271.877229	    174.692055	    375.586281	      0.020770	      0.167323	      0.237561	      0.115766	      0.234828	      0.110777	      0.991079	      0.058430	      0.537378	      0.057288	      0.021178	      0.040058
      0.410186	    -24.121562	    272.491418	    174.740277	    375.107721	      0.020769	      0.167330	      0.237823	      0.115755	      0.235090	      0.110766	      0.991137	      0.058428	      0.541894	      0.057283	      0.021176	      0.040052
      0.410828	    -23.945538	    275.556291	    174.980454	    372.667638	      0.020762	      0.167373	      0.239070	      0.115702	      0.236343	      0.110713	      0.991419	      0.058416	      0.563507	      0.057252	      0.021166	      0.040023
      0.412847	    -23.379568	    285.164920	    175.724633	    364.459440	      0.020742	      0.167514	      0.242421	      0.115535	      0.239706	      0.110546	      0.992247	      0.058382	      0.622489	      0.057133	      0.021136	      0.039937
      0.413651	    -23.148724	    288.980280	    176.016306	    360.959254	      0.020734	      0.167608	      0.243548	      0.115470	      0.240836	      0.110481	      0.992554	      0.058370	      0.642867	      0.057080	      0.021123	      0.039904
      0.414455	    -22.914805	    292.812674	    176.305107	    357.314412	      0.020726	      0.167655	      0.244573	      0.115404	      0.241863	      0.110415	      0.992849	      0.058359	      0.661770	      0.057026	      0.021112	      0.039873
      0.415635	    -22.566227	    298.418360	    176.723175	    351.727939	      0.020715	      0.167754	      0.245911	      0.115310	      0.243204	      0.110321	      0.993261	      0.058343	      0.687147	      0.056947	      0.021094	      0.039829
      0.416502	    -22.305550	    302.537705	    177.026459	    347.430907	      0.020707	      0.167858	      0.246784	      0.115241	      0.244078	      0.110252	      0.993548	      0.058333	      0.704244	      0.056889	      0.021082	      0.039797
      0.417370	    -22.041293	    306.671626	    177.325944	    342.966850	      0.020699	      0.167917	      0.247573	      0.115173	      0.244868	      0.110185	      0.993824	      0.058323	      0.720159	      0.056832	      0.021069	      0.039767
      0.418237	    -21.773457	    310.783491	    177.621489	    338.353806	      0.020691	      0.168066	      0.248287	      0.115106	      0.245582	      0.110118	      0.994087	      0.058314	      0.735005	      0.056777	      0.021057	      0.039738
      0.419105	    -21.502033	    314.934884	    177.912955	    333.564710	      0.020683	      0.168099	      0.248932	      0.115040	      0.246227	      0.110052	      0.994339	      0.058305	      0.748881	      0.056724	      0.021045	      0.039710
      0.419540	    -21.364397	    316.996644	    178.057724	    331.111789	      0.020679	      0.168141	      0.249232	      0.115008	      0.246527	      0.110019	      0.994461	      0.058301	      0.755510	      0.056697	      0.021039	      0.039697
      0.419761	    -21.294490	    318.037017	    178.130487	    329.857985	      0.020677	      0.168164	      0.249379	      0.114991	      0.246673	      0.110003	      0.994522	      0.058299	      0.758779	      0.056684	      0.021036	      0.039690
      0.419916	    -21.244873	    318.772874	    178.181819	    328.964834	      0.020676	      0.168181	      0.249480	      0.114979	      0.246774	      0.109991	      0.994565	      0.058298	      0.761060	      0.056675	      0.021034	      0.039685
      0.419996	    -21.219596	    319.146937	    178.207871	    328.508803	      0.020675	      0.168190	      0.249531	      0.114973	      0.246825	      0.109985	      0.994587	      0.058297	      0.762210	      0.056671	      0.021033	      0.039683
      0.420039	    -21.205808	    319.350756	    178.222054	    328.259750	      0.020674	      0.168194	      0.249539	      0.114970	      0.246835	      0.109982	      0.994598	      0.058296	      0.761412	      0.056668	      0.021032	      0.039681
      0.420082	    -21.192011	    319.554541	    178.236226	    328.010336	      0.020674	      0.168199	      0.249544	      0.114967	      0.246841	      0.109979	      0.994610	      0.058296	      0.760333	      0.056666	      0.021031	      0.039680
      0.420298	    -21.122893	    320.572881	    178.306925	    326.757951	      0.020672	      0.168223	      0.249568	      0.114951	      0.246873	      0.109963	      0.994668	      0.058294	      0.754979	      0.056654	      0.021028	      0.039674
      0.421378	    -20.774014	    325.643197	    178.656312	    320.372693	      0.020663	      0.168342	      0.249681	      0.114872	      0.247019	      0.109884	      0.994949	      0.058284	      0.729276	      0.056605	      0.021014	      0.039642
      0.421998	    -20.571046	    328.531178	    178.853950	    316.621383	      0.020657	      0.168434	      0.249739	      0.114827	      0.247096	      0.109839	      0.995104	      0.058278	      0.715262	      0.056584	      0.021005	      0.039625
      0.422644	    -20.358082	    331.521171	    179.056988	    312.660217	      0.020652	      0.168490	      0.249796	      0.114782	      0.247170	      0.109794	      0.995260	      0.058272	      0.701236	      0.056566	      0.020997	      0.039608
      0.423289	    -20.143200	    334.469175	    179.257453	    308.655521	      0.020646	      0.168651	      0.249848	      0.114736	      0.247238	      0.109749	      0.995411	      0.058267	      0.687738	      0.056552	      0.020988	      0.039591
      0.423934	    -19.926407	    337.440746	    179.455312	    304.582513	      0.020640	      0.168667	      0.249897	      0.114692	      0.247302	      0.109704	      0.995557	      0.058261	      0.674739	      0.056540	      0.020980	      0.039575
      0.424425	    -19.760238	    339.645692	    179.604048	    301.473530	      0.020636	      0.168713	      0.249932	      0.114658	      0.247347	      0.109671	      0.995666	      0.058256	      0.665169	      0.056533	      0.020974	      0.039563
      0.425136	    -19.517764	    342.786801	    179.816667	    296.944923	      0.020630	      0.168912	      0.249979	      0.114610	      0.247409	      0.109623	      0.995817	      0.058249	      0.651777	      0.056525	      0.020964	      0.039546
      0.425846	    -19.273043	    345.961802	    180.026040	    292.346625	      0.020624	      0.168922	      0.250022	      0.114563	      0.247465	      0.109576	      0.995964	      0.058242	      0.638904	      0.056518	      0.020955	      0.039530
      0.426338	    -19.102417	    348.087037	    180.169000	    289.167768	      0.020620	      0.168967	      0.250050	      0.114531	      0.247502	      0.109544	      0.996062	      0.058237	      0.630287	      0.056514	      0.020949	      0.039519
      0.426890	    -18.909625	    350.432676	    180.327632	    285.590936	      0.020616	      0.169107	      0.250080	      0.114495	      0.247540	      0.109508	      0.996170	      0.058231	      0.620881	      0.056511	      0.020942	      0.039507
